<?xml version="1.0" encoding="UTF-8"?>
<svg xmlns="http://www.w3.org/2000/svg" width="70" height="23" viewBox="0 0 70 23">
    <defs>
        <linearGradient id="a" x1="6.917%" x2="76.336%" y1="41.964%" y2="69.674%">
            <stop offset="0%" stop-color="#F0E63C"/>
            <stop offset="100%" stop-color="#E6AF32"/>
        </linearGradient>
    </defs>
    <g fill="none" fill-rule="nonzero">
        <path fill="#706F6F" d="M33.84 8.922h-.961v4.406a.32.32 0 0 0 .343.342h2.873l.456-.88H33.84V8.923zM40.12 8.878h-.982l-2.485 4.792h1.036l.445-.881h2.975l.292.578c.144.284.277.303.65.303h.553L40.12 8.878zm-1.553 3.053l1.054-2.088 1.055 2.088h-2.11zM45.478 12.252v1.418h-.961V8.922c.505-.013 1.187-.032 1.75-.032 1.1 0 1.832.156 2.267.591.266.277.406.651.386 1.034 0 1.372-1.07 1.745-2.598 1.745-.208 0-.597-.005-.844-.008zm0-.88c.243.005.548.009.758.009.617 0 1.182-.019 1.484-.32a.698.698 0 0 0 .2-.53.655.655 0 0 0-.163-.442c-.3-.301-.738-.32-1.52-.32-.211 0-.516.003-.759.008v1.596zM55.174 11.296c0 1.36-1.071 2.467-2.87 2.467-1.799 0-2.87-1.107-2.87-2.467s1.071-2.467 2.87-2.467c1.799 0 2.87 1.107 2.87 2.467zm-2.87-1.604c-1.09 0-1.868.632-1.868 1.604 0 .972.777 1.604 1.868 1.604 1.09 0 1.868-.632 1.868-1.604 0-.972-.777-1.604-1.868-1.604zM60.033 9.36c-.522-.325-1.369-.531-2.01-.531-1.206 0-2.155.634-2.155 1.517 0 1.662 3.274 1.046 3.274 2.033 0 .402-.599.574-1.11.574a3.437 3.437 0 0 1-1.914-.6l-.492.733c.597.406 1.557.677 2.322.677 1.195 0 2.196-.557 2.196-1.49 0-1.687-3.26-1.162-3.26-2.077 0-.387.54-.557 1.123-.557.56.008 1.105.174 1.573.48l.453-.758zM65.078 8.922h-4.59v.88h1.797v3.868h.962V9.8h1.83zM65.682 8.922v4.406a.32.32 0 0 0 .344.342h3.87v-.88h-3.252v-1.104h2.904v-.879h-2.904V9.801h3.165v-.879h-4.127"/>
        <path fill="url(#a)" d="M9.948 22.354c-3.475-.155-7.235-1.537-9.042-4.695C-.79 14.676.08 10.915 1.988 8.252 5.015 3.942 9.98 1.247 15.095.307c3.926-.696 8.347-.316 11.555 2.255 2.176 1.711 3.16 4.665 2.576 7.354-.86 4.154-4.111 7.389-7.656 9.478-3.491 2.034-7.572 3.15-11.622 2.96z" transform="translate(.108 .087)"/>
        <path fill="#003DA5" d="M8.542 7.292c.653.234 2.777.981 3.962 1.785l.114.08 8.826-.138c.015-.021.34-.593.532-.962.211-.404.226-.75-.013-.98-.26-.25-.68-.29-1.53-.29H8.59c-.094 0-.334-.016-.373.178a.21.21 0 0 0 .052.181c.08.068.173.118.274.146zM26.29 9.507c-.196.006-13.118.203-13.319.211-.107.004-.139.03-.14.145-.004.937-1.246 1.838-2.935 2.644-1.782.85-4.019 1.695-5.181 2.123-.277.102-.774.277-.934.359-.128.065-.217.165-.176.282.04.117.17.176.612.059.198-.053.42-.107.665-.17 2.233-.582 6.32-1.605 10.303-2.6 4.123-1.029 8.188-1.92 11.167-2.456.235-.042.428-.169.418-.347-.01-.166-.203-.257-.48-.25zM15.667 15.285s.581.015 1.005-.239c.683-.41 1.58-1.153 2.851-2.94L5.9 15.453l9.767-.168z"/>
    </g>
</svg>
